<svg width="25" height="20" viewBox="0 0 25 20" fill="none" xmlns="http://www.w3.org/2000/svg">
<path d="M12.5 0C5.59635 0 0 5.59635 0 12.5C0 14.7917 0.61849 16.9384 1.69531 18.7847C1.9388 19.2023 2.40278 19.4444 2.88628 19.4444H22.1137C22.5972 19.4444 23.0612 19.2023 23.3047 18.7847C24.3815 16.9384 25 14.7917 25 12.5C25 5.59635 19.4036 0 12.5 0ZM12.5 2.77778C13.1385 2.77778 13.6536 3.21745 13.816 3.80425C13.7678 3.90234 13.7014 3.98785 13.6662 4.09375L13.2661 5.2947C13.0434 5.44618 12.7899 5.55555 12.5004 5.55555C11.7335 5.55555 11.1115 4.93359 11.1115 4.16667C11.1115 3.39974 11.7331 2.77778 12.5 2.77778ZM4.16667 15.2778C3.39974 15.2778 2.77778 14.6558 2.77778 13.8889C2.77778 13.122 3.39974 12.5 4.16667 12.5C4.93359 12.5 5.55556 13.122 5.55556 13.8889C5.55556 14.6558 4.93359 15.2778 4.16667 15.2778ZM6.25 8.33333C5.48307 8.33333 4.86111 7.71137 4.86111 6.94444C4.86111 6.17752 5.48307 5.55555 6.25 5.55555C7.01693 5.55555 7.63889 6.17752 7.63889 6.94444C7.63889 7.71137 7.01693 8.33333 6.25 8.33333ZM16.9605 5.19054L14.2986 13.1766C14.8928 13.6862 15.2778 14.4332 15.2778 15.2778C15.2778 15.7865 15.1311 16.2565 14.8924 16.6667H10.1076C9.86892 16.2565 9.72222 15.7865 9.72222 15.2778C9.72222 13.8047 10.8724 12.6115 12.322 12.5178L14.9844 4.53125C15.1654 3.98611 15.7539 3.68707 16.3021 3.87283C16.8477 4.05469 17.1419 4.64496 16.9605 5.19054ZM17.5968 7.67318L18.2704 5.65278C18.421 5.59679 18.5799 5.55599 18.75 5.55599C19.5169 5.55599 20.1389 6.17795 20.1389 6.94488C20.1389 7.7118 19.5169 8.33377 18.75 8.33377C18.2561 8.33333 17.8433 8.0612 17.5968 7.67318ZM20.8333 15.2778C20.0664 15.2778 19.4444 14.6558 19.4444 13.8889C19.4444 13.122 20.0664 12.5 20.8333 12.5C21.6003 12.5 22.2222 13.122 22.2222 13.8889C22.2222 14.6558 21.6003 15.2778 20.8333 15.2778Z" fill="#EF3E36"/>
</svg>
