<?xml version="1.0" encoding="UTF-8"?><svg id="Layer_1" xmlns="http://www.w3.org/2000/svg" viewBox="0 0 396.77 147.87"><defs><style>.cls-1{fill:#f8f8f9;}.cls-2{fill:#e84038;}.cls-3{fill:#1d1d1b;}</style></defs><g><path class="cls-2" d="m115.58,84.4c-.91,0-1.63-.29-2.16-.86-.53-.58-.79-1.27-.79-2.09v-44.5c0-.86.29-1.57.86-2.12.58-.55,1.3-.83,2.16-.83.91,0,1.63.28,2.16.83.53.55.79,1.26.79,2.12v44.5c0,.82-.28,1.51-.83,2.09-.55.58-1.29.86-2.2.86Zm32.4-50.47c.77,0,1.4.31,1.91.94.5.62.76,1.27.76,1.94s-.29,1.3-.86,1.87l-31.82,30.1-.5-6.7,28.22-27.07c.72-.72,1.49-1.08,2.3-1.08Zm.22,50.62c-.86,0-1.58-.36-2.16-1.08l-19.15-24.41,4.39-4.46,19.51,24.98c.43.62.65,1.27.65,1.94,0,.96-.35,1.7-1.04,2.23-.7.53-1.43.79-2.2.79Z"/><path class="cls-2" d="m190.46,46.82c.82,0,1.5.28,2.05.83.55.55.83,1.24.83,2.05v31.75c0,.82-.28,1.51-.83,2.09-.55.58-1.24.86-2.05.86-.86,0-1.56-.29-2.09-.86-.53-.58-.79-1.27-.79-2.09v-6.84l1.37-.14c0,1.06-.36,2.21-1.08,3.46-.72,1.25-1.71,2.41-2.95,3.49-1.25,1.08-2.72,1.97-4.43,2.66-1.7.7-3.54,1.04-5.51,1.04-3.26,0-6.19-.85-8.78-2.56-2.59-1.7-4.64-4.02-6.16-6.95-1.51-2.93-2.27-6.26-2.27-10.01s.76-7.14,2.27-10.04c1.51-2.9,3.56-5.18,6.16-6.84,2.59-1.66,5.47-2.48,8.64-2.48,2.06,0,3.98.34,5.76,1.01,1.78.67,3.32,1.58,4.64,2.74s2.35,2.42,3.1,3.82c.74,1.39,1.12,2.78,1.12,4.18l-1.87-.43v-7.85c0-.82.26-1.5.79-2.05.53-.55,1.22-.83,2.09-.83Zm-14.83,32.98c2.4,0,4.52-.62,6.37-1.87,1.85-1.25,3.29-2.94,4.32-5.08,1.03-2.14,1.55-4.55,1.55-7.24s-.52-5.03-1.55-7.16c-1.03-2.14-2.47-3.82-4.32-5.04-1.85-1.22-3.97-1.84-6.37-1.84s-4.45.6-6.3,1.8c-1.85,1.2-3.3,2.86-4.36,4.97-1.06,2.11-1.58,4.54-1.58,7.27s.52,5.1,1.55,7.24c1.03,2.14,2.47,3.83,4.32,5.08,1.85,1.25,3.97,1.87,6.37,1.87Z"/><path class="cls-2" d="m222.5,46.24c3.26,0,5.83.67,7.7,2.02,1.87,1.34,3.2,3.14,4,5.4.79,2.26,1.19,4.78,1.19,7.56v20.23c0,.82-.28,1.51-.83,2.09-.55.58-1.24.86-2.05.86s-1.5-.29-2.05-.86c-.55-.58-.83-1.27-.83-2.09v-20.09c0-1.82-.28-3.47-.83-4.93-.55-1.46-1.46-2.64-2.74-3.53-1.27-.89-3.01-1.33-5.22-1.33-2.02,0-3.86.44-5.54,1.33-1.68.89-3.02,2.06-4.03,3.53-1.01,1.46-1.51,3.11-1.51,4.93v20.09c0,.82-.28,1.51-.83,2.09-.55.58-1.24.86-2.05.86s-1.5-.29-2.05-.86c-.55-.58-.83-1.27-.83-2.09v-31.39c0-.82.28-1.5.83-2.05.55-.55,1.24-.83,2.05-.83.86,0,1.56.28,2.09.83.53.55.79,1.24.79,2.05v5.11l-1.44,1.58c.24-1.25.79-2.51,1.66-3.78.86-1.27,1.94-2.41,3.24-3.42,1.3-1.01,2.74-1.81,4.32-2.41,1.58-.6,3.24-.9,4.97-.9Z"/><path class="cls-2" d="m252.81,86.85c0,2.45-.54,4.54-1.62,6.26s-2.44,3.07-4.07,4.03c-1.63.96-3.34,1.44-5.11,1.44-.82,0-1.48-.26-1.98-.79-.5-.53-.76-1.15-.76-1.87v-.5c0-.72.24-1.3.72-1.73.48-.43,1.08-.74,1.8-.94,1.1-.29,2.04-.73,2.81-1.33.77-.6,1.37-1.39,1.8-2.38.43-.98.65-2.15.65-3.49v-35.5c0-.82.28-1.51.83-2.09.55-.58,1.24-.86,2.05-.86.86,0,1.56.29,2.09.86.53.58.79,1.27.79,2.09v36.79Zm-2.88-45.07c-1.2,0-2.09-.24-2.66-.72-.58-.48-.86-1.22-.86-2.23v-1.01c0-1.01.31-1.75.94-2.23.62-.48,1.51-.72,2.66-.72s2.02.24,2.59.72c.58.48.86,1.22.86,2.23v1.01c0,1.01-.3,1.75-.9,2.23-.6.48-1.48.72-2.63.72Z"/><path class="cls-2" d="m268.29,41.78c-1.2,0-2.09-.24-2.66-.72-.58-.48-.86-1.22-.86-2.23v-1.01c0-1.01.31-1.75.94-2.23.62-.48,1.51-.72,2.66-.72s2.02.24,2.59.72c.58.48.86,1.22.86,2.23v1.01c0,1.01-.3,1.75-.9,2.23-.6.48-1.48.72-2.63.72Zm2.88,39.67c0,.82-.28,1.51-.83,2.09-.55.58-1.24.86-2.05.86-.86,0-1.56-.29-2.09-.86-.53-.58-.79-1.27-.79-2.09v-31.97c0-.82.28-1.5.83-2.05.55-.55,1.24-.83,2.05-.83s1.5.28,2.05.83c.55.55.83,1.24.83,2.05v31.97Z"/></g><g><path class="cls-3" d="m123.45,89.71c2.11,0,3.74.55,4.88,1.64,1.14,1.09,1.71,2.63,1.71,4.63,0,1.06-.24,2.03-.72,2.92-.48.89-1.18,1.6-2.11,2.12-.92.53-2.06.82-3.4.86l-.07-1.01c.84,0,1.7.12,2.59.36.89.24,1.71.62,2.47,1.15s1.37,1.22,1.84,2.09c.47.86.7,1.93.7,3.2,0,1.37-.23,2.51-.68,3.44s-1.06,1.67-1.82,2.23c-.76.56-1.6.97-2.52,1.21-.92.24-1.85.36-2.79.36h-9.47c-.41,0-.75-.14-1.03-.43-.28-.29-.41-.64-.41-1.04v-22.28c0-.41.14-.75.41-1.03s.62-.41,1.03-.41h9.4Zm-.43,2.84h-7.74l.43-.65v8.96l-.4-.47h7.78c1.06,0,1.96-.34,2.72-1.03.76-.68,1.13-1.7,1.13-3.04,0-1.2-.35-2.13-1.04-2.79-.7-.66-1.66-.99-2.88-.99Zm.29,10.73h-7.85l.25-.25v9.4l-.29-.32h7.99c1.42,0,2.57-.36,3.47-1.08.9-.72,1.35-1.84,1.35-3.35,0-1.18-.24-2.08-.72-2.72-.48-.64-1.1-1.07-1.85-1.31-.76-.24-1.54-.36-2.36-.36Z"/><path class="cls-3" d="m149.55,96.3c.43,0,.78.14,1.04.41.26.28.4.62.4,1.03v9.83c0,2.42-.68,4.3-2.03,5.63s-3.25,2-5.67,2-4.28-.67-5.63-2c-1.36-1.33-2.03-3.21-2.03-5.63v-9.83c0-.41.14-.75.41-1.03s.62-.41,1.03-.41c.43,0,.78.14,1.04.41.26.28.4.62.4,1.03v9.83c0,1.63.42,2.87,1.26,3.71.84.84,2.02,1.26,3.53,1.26s2.75-.42,3.58-1.26c.83-.84,1.24-2.08,1.24-3.71v-9.83c0-.41.14-.75.41-1.03s.62-.41,1.03-.41Z"/><path class="cls-3" d="m171.66,88.27c.41,0,.75.14,1.03.41.28.28.41.62.41,1.03v23.72c0,.41-.14.76-.41,1.04-.28.29-.62.43-1.03.43-.43,0-.78-.14-1.04-.43-.26-.29-.4-.64-.4-1.04v-3.42l.68-.25c0,.58-.18,1.18-.54,1.82-.36.64-.85,1.23-1.48,1.78-.62.55-1.36,1.01-2.21,1.37-.85.36-1.77.54-2.75.54-1.61,0-3.07-.42-4.37-1.26-1.31-.84-2.34-1.99-3.1-3.46-.76-1.46-1.13-3.13-1.13-5s.38-3.58,1.13-5.04,1.78-2.61,3.08-3.44,2.74-1.24,4.32-1.24c1.01,0,1.96.17,2.84.5.89.34,1.66.79,2.32,1.37.66.58,1.18,1.21,1.57,1.91.38.7.58,1.39.58,2.09l-.94-.22v-11.77c0-.41.13-.75.4-1.03.26-.28.61-.41,1.04-.41Zm-7.42,24.34c1.2,0,2.26-.31,3.19-.92.92-.61,1.64-1.45,2.16-2.52.52-1.07.77-2.27.77-3.62s-.26-2.58-.77-3.64c-.52-1.06-1.24-1.89-2.16-2.5-.92-.61-1.99-.92-3.19-.92s-2.23.31-3.15.92c-.92.61-1.65,1.45-2.18,2.5-.53,1.06-.79,2.27-.79,3.64s.26,2.51.79,3.58c.53,1.07,1.25,1.91,2.18,2.54.92.62,1.97.94,3.15.94Z"/><path class="cls-3" d="m193.76,88.27c.41,0,.75.14,1.03.41s.41.62.41,1.03v23.72c0,.41-.14.76-.41,1.04-.28.29-.62.43-1.03.43-.43,0-.78-.14-1.04-.43-.26-.29-.4-.64-.4-1.04v-3.42l.68-.25c0,.58-.18,1.18-.54,1.82-.36.64-.85,1.23-1.48,1.78-.62.55-1.36,1.01-2.21,1.37-.85.36-1.77.54-2.75.54-1.61,0-3.07-.42-4.37-1.26-1.31-.84-2.34-1.99-3.1-3.46-.76-1.46-1.13-3.13-1.13-5s.38-3.58,1.13-5.04,1.78-2.61,3.08-3.44c1.3-.83,2.74-1.24,4.32-1.24,1.01,0,1.96.17,2.84.5.89.34,1.66.79,2.32,1.37s1.18,1.21,1.57,1.91c.38.7.58,1.39.58,2.09l-.94-.22v-11.77c0-.41.13-.75.4-1.03.26-.28.61-.41,1.04-.41Zm-7.42,24.34c1.2,0,2.26-.31,3.19-.92.92-.61,1.64-1.45,2.16-2.52.52-1.07.77-2.27.77-3.62s-.26-2.58-.77-3.64c-.52-1.06-1.24-1.89-2.16-2.5s-1.99-.92-3.19-.92-2.23.31-3.15.92-1.65,1.45-2.18,2.5c-.53,1.06-.79,2.27-.79,3.64s.26,2.51.79,3.58c.53,1.07,1.25,1.91,2.18,2.54.92.62,1.97.94,3.15.94Z"/><path class="cls-3" d="m214.46,96.01c.41,0,.75.14,1.03.41.28.28.41.62.41,1.03v15.7c0,2.02-.4,3.69-1.19,5.02s-1.85,2.32-3.19,2.97-2.84.97-4.52.97c-.94,0-1.84-.1-2.7-.29-.86-.19-1.57-.44-2.12-.76-.46-.22-.77-.49-.95-.81-.18-.32-.21-.67-.09-1.03.17-.43.41-.73.74-.9.32-.17.67-.17,1.03,0,.38.17.94.4,1.67.7.73.3,1.55.45,2.47.45,1.25,0,2.32-.24,3.2-.72.89-.48,1.57-1.18,2.05-2.11.48-.92.72-2.07.72-3.44v-2.56l.43.9c-.38.74-.9,1.39-1.55,1.94-.65.55-1.39.98-2.23,1.3-.84.31-1.76.47-2.77.47-1.37,0-2.53-.29-3.47-.88-.95-.59-1.67-1.4-2.16-2.45-.49-1.04-.74-2.25-.74-3.62v-10.87c0-.41.14-.75.41-1.03.28-.28.62-.41,1.03-.41.43,0,.78.14,1.04.41.26.28.4.62.4,1.03v10.22c0,1.63.36,2.86,1.08,3.69.72.83,1.84,1.24,3.35,1.24.96,0,1.83-.22,2.61-.65.78-.43,1.4-1.03,1.87-1.78.47-.76.7-1.59.7-2.5v-10.22c0-.41.13-.75.4-1.03.26-.28.61-.41,1.04-.41Z"/></g><g><circle class="cls-2" cx="78.93" cy="67.53" r="25.19"/><g><path class="cls-1" d="m73.43,57.94c-.65-.59-1.98-1.35-3.04-1.82l1.15-1.6c1.06.38,2.43,1.06,3.11,1.64l-1.22,1.78Zm1.98,2.54c-.79,1.93-1.75,4-2.67,5.74l-1.93-1.26c.83-1.39,2-3.65,2.9-5.76l1.69,1.28Zm-1.03-7.29c-.65-.61-2-1.42-3.08-1.89l1.21-1.62c1.03.43,2.38,1.13,3.08,1.71v-.54h2.41v-1.21h1.96v1.21h2.3v-1.21h2v1.21h2.74v1.73h-2.74v1.06h-2v-1.06h-2.3v1.06h-1.96v-1.06h-2.41v-1.1l-1.21,1.71Zm8.91,9.71c.94.88,2.32,1.49,4.02,1.78-.45.41-1.03,1.21-1.31,1.75-2.16-.54-3.76-1.64-4.81-3.24-.85,1.31-2.38,2.45-5,3.26-.23-.45-.83-1.21-1.3-1.6,1.98-.49,3.22-1.17,4-1.94h-3.46v-1.66h4.45c.09-.25.14-.52.18-.77h-3.96v-1.62h4.02v-.77h-3.8v-4.14h9.9v4.14h-4.03v.77h4.29v1.62h-4.34c-.02.25-.07.52-.13.77h5.15v1.66h-3.85Zm-3.19-6.3v-1.19h-1.93v1.19h1.93Zm4.12-1.19h-2.05v1.19h2.05v-1.19Z"/><path class="cls-1" d="m86.7,82.87h-6.75v2.7c0,1.17-.25,1.73-1.13,2.07-.85.32-2,.36-3.48.36-.14-.65-.58-1.6-.94-2.2,1.1.04,2.45.05,2.81.04.36,0,.47-.07.47-.32v-2.65h-6.66v-2.03h6.66v-1.13h.77c.56-.38,1.13-.86,1.64-1.35h-6.01v-1.94h7.91l.5-.11,1.37,1.04c-1.03,1.19-2.41,2.45-3.91,3.35v.14h6.75v2.03Zm-13.5-5.28h-2.11v-4.65h6.57v-1.73h2.27v1.73h6.63v4.65h-2.21v-2.65h-11.15v2.65Z"/></g></g></svg>