<svg width="17" height="19" viewBox="0 0 17 19" fill="none" xmlns="http://www.w3.org/2000/svg">
<path d="M12.2779 1.9C11.4887 2.61621 10.776 3.36916 10.1446 4.12545C9.11018 2.73199 7.82759 1.3185 6.375 0C2.64638 3.38326 0 7.79148 0 10.45C0 15.1722 3.80565 19 8.5 19C13.1944 19 17 15.1722 17 10.45C17 8.47318 15.0275 4.39598 12.2779 1.9ZM11.5391 14.5413C10.7172 15.1039 9.70366 15.4375 8.60853 15.4375C5.87069 15.4375 3.64286 13.6659 3.64286 10.7896C3.64286 9.35676 4.56533 8.0943 6.40498 5.9375C6.66795 6.23363 10.1552 10.5888 10.1552 10.5888L12.38 8.10691C12.5371 8.36111 12.6802 8.60975 12.8077 8.84799C13.8455 10.7847 13.4076 13.2629 11.5391 14.5413Z" fill="black"/>
</svg>
