<svg width="25" height="15" viewBox="0 0 25 15" fill="none" xmlns="http://www.w3.org/2000/svg">
<path d="M24.31 3.48447L13.4139 0.136816C12.8201 -0.0456055 12.1795 -0.0456055 11.5861 0.136816L0.689648 3.48447C-0.229883 3.76689 -0.229883 4.98291 0.689648 5.26533L2.58926 5.84893C2.17246 6.36416 1.91621 6.99268 1.89082 7.68096C1.51465 7.89658 1.2498 8.28564 1.2498 8.7501C1.2498 9.17119 1.47168 9.52549 1.79121 9.75205L0.793945 14.2396C0.707227 14.6298 1.0041 15.0001 1.40371 15.0001H3.59551C3.99551 15.0001 4.29238 14.6298 4.20566 14.2396L3.2084 9.75205C3.52793 9.52549 3.7498 9.17119 3.7498 8.7501C3.7498 8.29814 3.49707 7.92002 3.13809 7.70049C3.16777 7.11377 3.46777 6.59502 3.94629 6.26611L11.5857 8.61338C11.9396 8.72197 12.6186 8.85752 13.4135 8.61338L24.31 5.26572C25.2299 4.98291 25.2299 3.76729 24.31 3.48447ZM13.7807 9.8083C12.6662 10.1505 11.7166 9.96143 11.2186 9.8083L5.55371 8.06807L4.9998 12.5001C4.9998 13.881 8.35762 15.0001 12.4998 15.0001C16.642 15.0001 19.9998 13.881 19.9998 12.5001L19.4459 8.06768L13.7807 9.8083Z" fill="#EF3E36"/>
</svg>
