<svg xmlns="http://www.w3.org/2000/svg" xmlns:xlink="http://www.w3.org/1999/xlink" version="1.1" baseProfile="full" viewBox="0 0 200 200" width="200" height="200">
<g fill="black">
<path d="M 16.0 176.0 L 94.0 176.0 L 94.0 146.0 L 34.0 146.0 L 34.0 142.0 L 94.0 142.0 L 94.0 114.0 L 106.0 116.0 L 109.0 118.0 L 106.0 119.8 L 106.0 142.0 L 144.0 142.0 L 154.0 132.0 L 166.0 142.0 L 166.0 146.0 L 106.0 146.0 L 106.0 176.0 L 162.0 176.0 L 172.0 166.0 L 184.0 176.0 L 184.0 180.0 L 16.0 180.0 Z M 151.9 113.9 L 149.2 110.1 L 146.2 106.2 L 145.83106260299684 105.77680711746216 L 138.3 107.2 L 125.9 109.3 L 113.8 111.1 L 102.0 112.7 L 90.6 114.2 L 79.5 115.5 L 68.7 116.8 L 58.2 117.9 L 48.1 118.9 L 42.36675996780396 119.48502445220947 L 40.5 122.7 L 38.3 119.9 L 35.6 108.0 L 37.6 107.9 L 47.3 107.6 L 57.4 107.2 L 63.45418300628662 106.96936445236206 L 64.1 105.7 L 67.0 100.4 L 69.8 95.3 L 72.6 90.4 L 75.2 85.8 L 77.6 81.4 L 79.9 77.2 L 82.0 73.3 L 83.21052627563476 71.0 L 42.0 71.0 L 42.0 67.0 L 136.0 67.0 L 146.0 57.0 L 156.5101538658142 65.75846157073974 L 157.6 64.1 L 159.6 60.6 L 161.5 57.3 L 163.3 54.2 L 164.9 51.2 L 166.4 48.5 L 167.8 45.9 L 168.5333333015442 44.3 L 33.14509801864624 44.3 L 33.2 47.1 L 32.9 51.7 L 32.1 56.1 L 31.0 60.3 L 29.4 64.1 L 27.3 67.6 L 24.7 70.7 L 21.6 73.4 L 17.1 74.0 L 13.4 71.4 L 12.7 66.8 L 15.4 63.1 L 17.4 62.1 L 19.3 60.7 L 21.2 58.9 L 22.9 56.5 L 24.6 53.6 L 26.0 50.2 L 27.3 46.2 L 28.5 41.7 L 29.5 36.7 L 30.1 31.1 L 31.9 31.1 L 32.6 36.7 L 32.939622688293454 40.3 L 94.0 40.3 L 94.0 12.6 L 106.0 14.6 L 109.0 16.6 L 106.0 18.4 L 106.0 40.3 L 170.0 40.3 L 170.50232553482056 39.88139533996582 L 170.8 39.1 L 171.1690929412842 39.32575588226318 L 176.0 35.3 L 187.0 44.3 L 182.0 47.3 L 177.82675161361695 49.038853549957274 L 177.5 49.4 L 175.5 51.5 L 171.0 56.0 L 168.5 58.3 L 165.8 60.8 L 162.9 63.3 L 159.7 65.9 L 158.0 67.49032258987427 L 158.0 71.0 L 96.8 71.0 L 96.1 72.0 L 93.7 75.4 L 91.1 79.0 L 88.4 82.7 L 85.4 86.6 L 82.2 90.6 L 78.8 94.7 L 75.2 99.0 L 71.4 103.5 L 68.26618232727051 106.78304710388184 L 78.7 106.3 L 89.8 105.7 L 101.3 105.1 L 113.2 104.5 L 125.4 103.9 L 137.9 103.4 L 143.64342613220214 103.26745939254761 L 142.8 102.3 L 139.1 98.3 L 135.1 94.2 L 130.8 90.1 L 126.2 85.8 L 121.3 81.3 L 122.3 79.7 L 128.3 82.6 L 134.0 85.8 L 139.2 89.1 L 144.1 92.6 L 148.7 96.1 L 152.9 99.8 L 156.8 103.5 L 160.4 107.4 L 163.7 111.3 L 166.6 115.3 L 167.2 119.8 L 164.5 123.5 L 159.9 124.1 L 156.3 121.4 L 154.3 117.7 Z " />
</g>
</svg>
