<svg xmlns="http://www.w3.org/2000/svg" xmlns:xlink="http://www.w3.org/1999/xlink" version="1.1" baseProfile="full" viewBox="0 0 200 200" width="200" height="200">
<g fill="black">
<path d="M 154.0 160.3 L 145.0 151.5 L 136.8 142.1 L 129.5 131.9 L 123.0 121.1 L 117.4 109.6 L 112.6 97.4 L 108.9 84.6 L 106.47333335876465 72.0 L 105.44871797561646 72.0 L 103.5 73.9 L 98.7 78.5 L 93.1 82.9 L 86.7 87.2 L 85.24100847244263 88.0630654335022 L 92.1 95.0 L 99.6 104.0 L 105.9 113.1 L 110.8 122.2 L 114.6 131.3 L 117.1 140.4 L 118.3 149.5 L 118.2 158.6 L 116.8 167.6 L 114.0 176.4 L 113.36471662521362 176.4592930793762 L 112.3 178.5 L 111.0 180.6 L 109.5 182.5 L 107.7 184.2 L 105.7 185.7 L 103.6 186.9 L 101.3 187.8 L 98.9 188.5 L 96.5 188.8 L 94.0 189.0 L 94.0 183.0 L 74.0 180.0 L 74.0 177.0 L 94.0 177.0 L 95.3 176.9 L 96.5 176.7 L 97.5 176.4 L 98.4 176.1 L 99.2 175.6 L 99.9 175.1 L 100.37368421554565 174.62631578445433 L 101.9 171.1 L 104.7 164.2 L 106.5 157.1 L 107.3 149.7 L 107.0 142.0 L 106.04826402664185 136.4935276031494 L 105.7 136.8 L 97.7 143.1 L 89.2 148.9 L 80.2 154.4 L 70.7 159.4 L 60.8 164.0 L 50.4 168.2 L 39.5 172.0 L 28.1 175.2 L 16.2 177.8 L 15.7 176.1 L 26.9 171.6 L 37.6 167.0 L 47.8 162.2 L 57.5 157.2 L 66.7 152.0 L 75.3 146.5 L 83.4 140.7 L 91.0 134.6 L 98.1 128.3 L 102.49519996643066 123.90480003356933 L 99.5 116.5 L 96.63954982757568 110.95787782669068 L 93.4 113.4 L 86.5 118.0 L 79.2 122.4 L 71.5 126.6 L 63.4 130.5 L 54.8 134.2 L 45.8 137.6 L 36.4 140.7 L 26.6 143.5 L 16.2 145.8 L 15.7 144.1 L 25.3 139.9 L 34.5 135.7 L 43.3 131.5 L 51.6 127.3 L 59.5 122.9 L 66.9 118.5 L 73.9 113.9 L 80.4 109.2 L 86.5 104.4 L 90.68358478546142 100.59674110412598 L 88.8 97.5 L 83.22352075576782 89.2565089225769 L 79.6 91.4 L 71.7 95.4 L 63.1 99.4 L 53.6 103.3 L 43.3 107.0 L 32.2 110.5 L 20.2 113.8 L 19.7 112.1 L 30.9 107.0 L 41.3 102.0 L 50.9 97.3 L 59.7 92.6 L 67.7 88.0 L 74.8 83.4 L 81.0 78.9 L 86.4 74.5 L 88.95813951492309 72.0 L 42.0 72.0 L 42.0 68.0 L 130.0 68.0 L 140.0 58.0 L 152.0 68.0 L 152.0 72.0 L 108.59523811340333 72.0 L 112.9 83.3 L 118.1 95.2 L 123.8 106.4 L 130.03195791244508 116.68767652511596 L 131.8 115.0 L 136.0 111.1 L 140.0 107.4 L 143.9 103.8 L 147.6 100.3 L 151.1 96.9 L 154.4 93.7 L 157.5 90.5 L 160.4 87.4 L 162.35380115509034 85.14561405181885 L 162.3 85.1 L 163.3 84.1 L 171.5 92.9 L 172.2 96.4 L 168.45816326141357 95.48095235824584 L 168.2 95.7 L 164.7 98.5 L 161.0 101.3 L 157.1 104.1 L 152.9 106.9 L 148.5 109.8 L 143.9 112.6 L 139.1 115.4 L 133.9 118.1 L 131.7761121749878 119.12261266708374 L 137.1 126.5 L 144.6 135.4 L 152.8 143.7 L 161.6 151.2 L 171.1 158.1 L 181.3 164.3 L 185.7 166.9 L 174.6 175.6 L 163.9 168.3 Z M 16.2 69.2 L 15.6 64.7 L 18.3 61.0 L 20.2 60.0 L 22.1 58.6 L 23.9 56.8 L 25.7 54.5 L 27.3 51.7 L 28.8 48.3 L 30.1 44.4 L 31.2 40.0 L 32.2 35.1 L 32.8 29.7 L 34.6 29.6 L 35.3 35.1 L 35.630188655853274 38.6 L 96.0 38.6 L 96.0 11.3 L 108.0 13.3 L 111.0 15.3 L 108.0 17.1 L 108.0 38.6 L 171.2 38.6 L 171.8 38.1 L 172.1 37.4 L 172.4101351737976 37.59155406951904 L 177.2 33.6 L 188.2 42.6 L 183.2 45.6 L 179.03999996185303 47.33333330154419 L 178.8 47.6 L 176.8 49.7 L 174.6 51.8 L 172.3 54.1 L 169.8 56.4 L 167.1 58.8 L 164.3 61.3 L 161.1 63.8 L 158.1 66.7 L 156.7 65.5 L 159.0 62.0 L 161.0 58.6 L 162.8 55.3 L 164.6 52.3 L 166.2 49.4 L 167.7 46.6 L 169.0 44.1 L 169.75 42.6 L 35.84489793777466 42.6 L 35.9 45.3 L 35.6 49.9 L 34.8 54.3 L 33.7 58.3 L 32.1 62.1 L 30.1 65.5 L 27.5 68.6 L 24.5 71.2 L 19.9 71.9 Z " />
</g>
</svg>
