<svg xmlns="http://www.w3.org/2000/svg" xmlns:xlink="http://www.w3.org/1999/xlink" version="1.1" baseProfile="full" viewBox="0 0 200 200" width="200" height="200">
<g fill="black">
<path d="M 65.0 176.0 L 119.2 176.0 L 119.2 116.0 L 79.5 116.0 L 79.5 112.0 L 119.2 112.0 L 119.2 62.0 L 71.0 62.0 L 71.0 58.0 L 157.5 58.0 L 167.5 48.0 L 179.5 58.0 L 179.5 62.0 L 131.2 62.0 L 131.2 112.0 L 150.2 112.0 L 160.2 102.0 L 172.2 112.0 L 172.2 116.0 L 131.2 116.0 L 131.2 176.0 L 163.5 176.0 L 173.5 166.0 L 185.5 176.0 L 185.5 180.0 L 65.0 180.0 Z M 40.6 184.2 L 36.5 182.1 L 35.1 177.8 L 35.6 170.8 L 35.7 164.5 L 35.2 158.8 L 34.3 153.7 L 32.9 149.2 L 31.48470335006714 146.298641872406 L 31.1 146.2 L 31.25656404495239 145.83095626831056 L 30.9 145.1 L 28.5 141.4 L 25.5 138.1 L 21.9 135.0 L 17.5 132.1 L 18.0 130.4 L 23.5 131.6 L 28.6 133.7 L 33.2 136.8 L 34.62105264663696 138.22105264663696 L 36.8 133.5 L 39.9 127.1 L 43.5 119.7 L 52.7 101.3 L 58.3 90.5 L 64.7 78.6 L 71.8 65.6 L 73.4 66.3 L 68.1 80.1 L 63.2 92.7 L 58.7 104.0 L 54.7 114.1 L 51.3 123.0 L 48.4 130.8 L 46.1 137.3 L 44.4 142.6 L 43.2 146.6 L 42.8 149.2 L 42.263380241394046 149.06240520477294 L 43.1 150.8 L 45.1 156.9 L 46.4 163.6 L 47.0 170.8 L 47.0 178.6 L 44.9 182.7 Z M 35.5 82.2 L 34.2 80.2 L 32.6 78.2 L 30.6 76.2 L 28.3 74.1 L 25.7 72.1 L 22.8 70.0 L 19.6 67.9 L 15.9 66.1 L 16.5 64.4 L 20.5 65.4 L 24.5 66.1 L 28.2 67.2 L 31.7 68.4 L 34.9 69.8 L 37.9 71.4 L 40.7 73.3 L 43.3 75.3 L 45.6 77.6 L 47.7 80.1 L 48.2 84.6 L 45.4 88.3 L 40.9 88.7 L 37.2 86.0 L 36.5 84.1 Z M 120.5 43.1 L 119.1 40.3 L 117.3 37.3 L 115.0 34.2 L 112.4 30.9 L 109.3 27.5 L 105.9 23.9 L 102.1 20.1 L 97.9 16.3 L 98.9 14.8 L 104.0 17.4 L 108.9 20.1 L 113.3 22.8 L 117.3 25.7 L 120.9 28.6 L 124.2 31.5 L 127.1 34.5 L 129.6 37.6 L 131.7 40.8 L 133.5 44.1 L 133.2 48.7 L 129.9 51.8 L 125.3 51.5 L 122.2 48.1 L 121.6 45.7 Z M 49.2 36.9 L 47.8 34.9 L 46.2 32.9 L 44.3 30.8 L 42.1 28.8 L 39.7 26.8 L 36.9 24.7 L 34.0 22.6 L 30.6 20.8 L 31.2 19.1 L 35.0 20.1 L 38.7 20.9 L 42.2 21.9 L 45.5 23.2 L 48.7 24.6 L 51.6 26.2 L 54.4 28.0 L 56.9 30.0 L 59.3 32.2 L 61.4 34.6 L 62.1 39.1 L 59.5 42.9 L 54.9 43.6 L 51.2 40.9 L 50.3 38.9 Z " />
</g>
</svg>
