<svg xmlns="http://www.w3.org/2000/svg" xmlns:xlink="http://www.w3.org/1999/xlink" version="1.1" baseProfile="full" viewBox="0 0 200 200" width="200" height="200">
<g fill="black">
<path d="M 166.4 19.8 L 168.0 23.0 L 164.03862609863282 23.068299579620362 L 162.1 25.8 L 159.6 29.2 L 156.8 32.8 L 153.8 36.7 L 150.6 40.9 L 147.1 45.2 L 143.2 49.8 L 139.0 54.6 L 136.74693880081176 57.0 L 162.7 57.0 L 172.7 47.0 L 184.7 57.0 L 184.7 61.0 L 133.6 61.0 L 133.6 96.0 L 157.9 96.0 L 167.9 86.0 L 179.9 96.0 L 179.9 100.0 L 133.6 100.0 L 133.6 135.0 L 166.4 135.0 L 176.4 125.0 L 188.4 135.0 L 188.4 139.0 L 133.6 139.0 L 133.6 184.0 L 121.6 190.0 L 121.6 139.0 L 70.5 139.0 L 70.5 135.0 L 121.6 135.0 L 121.6 100.0 L 79.0 100.0 L 79.0 96.0 L 121.6 96.0 L 121.6 61.0 L 74.2 61.0 L 74.2 57.0 L 133.67666664123536 57.0 L 135.9 52.4 L 138.8 46.8 L 141.6 41.6 L 144.3 36.7 L 146.7 32.1 L 149.0 27.8 L 151.1 23.9 L 152.9 20.2 L 154.5 16.9 L 155.50413551330567 14.748281002044678 L 155.4 14.7 L 156.5 12.9 Z M 40.0 186.9 L 35.9 184.8 L 34.5 180.5 L 35.1 173.5 L 35.1 167.1 L 34.6 161.3 L 33.5 156.2 L 31.9 151.5 L 29.7 147.4 L 27.0 143.6 L 23.6 140.2 L 19.5 137.0 L 14.5 134.1 L 15.1 132.4 L 21.0 133.6 L 26.5 135.7 L 31.4 138.8 L 33.56880941390991 140.7670597076416 L 33.6 140.7 L 36.3 135.4 L 39.6 129.0 L 43.6 121.4 L 48.2 112.7 L 53.6 102.8 L 59.7 91.8 L 66.5 79.7 L 74.2 66.5 L 75.9 67.4 L 69.9 81.4 L 64.5 94.2 L 59.5 105.7 L 55.1 116.0 L 51.3 125.0 L 48.1 132.8 L 45.5 139.5 L 43.6 144.8 L 42.3 148.9 L 41.7 151.6 L 41.419355392456055 151.51946725845337 L 42.2 153.0 L 44.4 159.2 L 45.8 166.0 L 46.4 173.5 L 46.4 181.4 L 44.3 185.5 Z M 34.9 83.6 L 33.4 81.6 L 31.5 79.5 L 29.3 77.4 L 26.7 75.3 L 23.8 73.3 L 20.5 71.1 L 16.9 69.0 L 12.8 67.1 L 13.4 65.4 L 17.8 66.3 L 22.1 67.1 L 26.1 68.1 L 29.9 69.4 L 33.4 70.8 L 36.7 72.5 L 39.7 74.3 L 42.4 76.4 L 45.0 78.7 L 47.2 81.3 L 47.8 85.8 L 45.2 89.5 L 40.6 90.2 L 36.9 87.5 L 36.1 85.6 Z M 101.6 43.8 L 100.5 41.1 L 99.1 38.2 L 97.2 35.2 L 95.1 32.1 L 92.6 28.8 L 89.7 25.4 L 86.6 21.8 L 82.9 18.3 L 84.0 16.8 L 88.5 19.4 L 92.7 21.9 L 96.6 24.5 L 100.1 27.2 L 103.3 30.0 L 106.2 32.9 L 108.7 35.9 L 110.9 38.9 L 112.8 42.1 L 114.3 45.4 L 113.8 49.9 L 110.2 52.8 L 105.7 52.3 L 102.8 48.7 L 102.4 46.3 Z M 49.9 37.7 L 48.3 35.6 L 46.5 33.5 L 44.3 31.4 L 41.8 29.3 L 39.1 27.2 L 36.0 25.1 L 32.7 23.0 L 29.0 21.1 L 29.5 19.4 L 33.7 20.3 L 37.7 21.1 L 41.5 22.2 L 45.1 23.5 L 48.5 24.9 L 51.7 26.6 L 54.6 28.4 L 57.4 30.4 L 59.9 32.7 L 62.2 35.1 L 63.1 39.6 L 60.6 43.4 L 56.1 44.3 L 52.2 41.8 L 51.2 39.7 Z " />
</g>
</svg>
