<svg xmlns="http://www.w3.org/2000/svg" xmlns:xlink="http://www.w3.org/1999/xlink" version="1.1" baseProfile="full" viewBox="0 0 200 200" width="200" height="200">
<g fill="black">
<path d="M 12.7 122.0 L 15.4 121.2 L 18.3 120.3 L 21.4 119.2 L 24.6 117.9 L 27.9 116.5 L 31.3 114.9 L 34.9 113.2 L 38.6 111.4 L 41.900908660888675 109.79186496734619 L 42.0 98.0 L 42.0 31.0 L 54.0 37.0 L 104.0 37.0 L 104.0 12.0 L 116.0 14.0 L 119.0 16.0 L 116.0 17.8 L 116.0 37.0 L 164.0 37.0 L 174.0 27.0 L 186.0 37.0 L 186.0 41.0 L 54.0 41.0 L 54.0 98.0 L 53.3 110.5 L 52.0 122.3 L 49.9 133.4 L 47.2 143.7 L 43.7 153.2 L 39.5 161.9 L 34.6 169.8 L 28.9 176.7 L 22.6 182.7 L 15.5 187.7 L 14.4 186.2 L 19.9 180.0 L 24.7 173.4 L 29.0 166.3 L 32.7 158.6 L 35.7 150.2 L 38.2 141.2 L 40.0 131.5 L 41.3 121.0 L 41.6436749458313 114.64201288223266 L 41.2 115.1 L 38.1 118.0 L 35.1 120.7 L 32.0 123.2 L 29.0 125.6 L 26.0 127.7 L 23.0 129.7 L 21.009677410125732 130.89419355392457 L 20.1 135.2 L 17.1 133.1 L 10.8 122.8 Z M 137.8 174.3 L 155.8 174.3 L 157.0 174.2 L 157.9 174.0 L 158.5 173.9 L 158.9 173.7 L 159.0 173.5 L 159.2 173.3 L 159.4 173.0 L 159.6 172.4 L 159.7 171.5 L 159.8 170.3 L 159.8 94.9 L 125.93586959838868 94.9 L 125.3 101.4 L 123.6139624595642 109.45551271438599 L 123.8 109.5 L 128.2 111.2 L 132.5 113.5 L 136.5 116.3 L 140.3 119.5 L 143.9 123.2 L 147.3 127.2 L 150.4 131.7 L 153.2 136.6 L 155.8 141.8 L 155.7 146.4 L 152.5 149.6 L 147.9 149.5 L 144.7 146.2 L 142.9 141.4 L 141.0 136.9 L 138.9 132.7 L 136.6 128.7 L 134.1 125.1 L 131.5 121.7 L 128.6 118.5 L 125.5 115.6 L 122.50909614562988 113.04893493652344 L 120.9 118.0 L 117.4 125.3 L 113.1 131.9 L 107.9 137.8 L 101.9 142.9 L 95.1 147.1 L 87.7 150.5 L 81.4 152.42073173522948 L 81.4 180.3 L 69.4 186.3 L 69.4 84.9 L 81.4 90.9 L 114.2 90.9 L 114.2 69.8 L 60.2 69.8 L 60.2 65.8 L 160.5 65.8 L 170.5 55.8 L 182.5 65.8 L 182.5 69.8 L 126.2 69.8 L 126.2 90.9 L 159.8 90.9 L 165.8 85.9 L 176.8 94.9 L 171.8 98.9 L 171.8 170.3 L 171.7 172.8 L 171.2 175.3 L 170.4 177.7 L 169.2 180.0 L 167.5 182.0 L 165.5 183.7 L 163.3 184.9 L 160.8 185.7 L 158.4 186.1 L 155.8 186.3 L 155.8 180.3 L 137.8 177.3 Z M 81.4 94.9 L 81.4 149.7833333015442 L 86.0 147.1 L 92.2 142.6 L 97.6 137.9 L 102.2 132.7 L 106.0 127.1 L 109.1 121.2 L 111.4 114.7 L 113.1 107.7 L 114.0 100.1 L 114.1283950805664 94.9 Z M 24.3 76.9 L 23.6 73.9 L 22.7 70.9 L 21.7 68.1 L 20.5 65.4 L 19.2 62.7 L 17.8 60.1 L 16.2 57.5 L 14.2 55.3 L 15.3 53.8 L 18.0 55.5 L 20.8 57.2 L 23.5 59.2 L 26.0 61.5 L 28.3 64.1 L 30.4 67.0 L 32.3 70.1 L 34.1 73.4 L 35.7 76.9 L 37.1 80.6 L 36.3 85.1 L 32.6 87.9 L 28.1 87.1 L 25.4 83.4 L 24.9 80.1 Z " />
</g>
</svg>
