<svg xmlns="http://www.w3.org/2000/svg" xmlns:xlink="http://www.w3.org/1999/xlink" version="1.1" baseProfile="full" viewBox="0 0 200 200" width="200" height="200">
<g fill="black">
<path d="M 130.8 184.1 L 111.6 183.2 L 95.0 181.4 L 81.1 178.3 L 69.6 173.9 L 60.6 167.8 L 54.4 160.0 L 51.80271492004395 153.09864253997802 L 50.111111068725585 153.94444446563722 L 49.4 154.9 L 46.2 159.0 L 42.9 162.8 L 39.6 166.4 L 36.3 169.8 L 33.0 172.9 L 29.7 175.9 L 26.4 178.7 L 23.33198595046997 181.02425308227538 L 23.1 185.2 L 19.9 183.6 L 12.0 174.3 L 13.8 173.3 L 17.0 171.7 L 20.4 169.9 L 23.8 167.9 L 27.4 165.7 L 31.1 163.4 L 34.8 160.8 L 38.7 158.1 L 42.7 155.3 L 44.0 154.42325582504273 L 44.0 91.0 L 14.0 91.0 L 14.0 87.0 L 44.0 87.0 L 50.0 82.0 L 61.0 91.0 L 56.0 95.0 L 56.0 151.0 L 55.859574508666995 151.0702127456665 L 59.3 156.7 L 65.2 162.2 L 73.1 166.3 L 83.4 169.3 L 96.3 171.2 L 112.1 172.2 L 130.9 172.3 L 152.7 171.6 L 177.7 170.4 L 189.0 169.8 L 178.2 183.5 L 153.0 184.1 Z M 97.44794521331787 37.97397260665893 L 100.1 37.1 L 108.4 34.4 L 116.3 31.9 L 123.7 29.4 L 130.6 27.1 L 137.0 24.7 L 143.0 22.5 L 148.4 20.2 L 153.4 18.0 L 156.92164182662964 16.239179134368896 L 156.9 16.2 L 156.93553113937378 16.232234477996826 L 157.8 15.8 L 158.72349462509155 17.8543044090271 L 166.6 25.0 L 166.7 28.2 L 162.94788131713867 26.59194917678833 L 162.7 26.7 L 157.6 28.5 L 152.1 30.3 L 146.2 32.0 L 139.8 33.6 L 132.9 35.2 L 125.6 36.8 L 117.8 38.2 L 109.6 39.6 L 100.9 40.8 L 97.5 41.1290322303772 L 97.5 71.9 L 162.6 71.9 L 172.6 61.9 L 184.6 71.9 L 184.6 75.9 L 146.4 75.9 L 146.4 158.8 L 134.4 164.8 L 134.4 75.9 L 97.5 75.9 L 97.5 81.7 L 96.9 92.8 L 95.8 103.2 L 94.1 113.0 L 91.9 122.1 L 89.1 130.5 L 85.7 138.1 L 81.8 145.1 L 77.3 151.2 L 72.2 156.4 L 66.5 160.7 L 65.3 159.4 L 69.4 153.9 L 72.9 148.1 L 76.1 141.9 L 78.8 135.2 L 81.0 127.8 L 82.8 119.9 L 84.2 111.3 L 85.1 102.1 L 85.5 92.3 L 85.5 32.0 Z M 46.0 50.2 L 44.0 47.2 L 41.8 44.2 L 39.3 41.2 L 36.6 38.2 L 33.7 35.2 L 30.5 32.2 L 27.1 29.2 L 23.4 26.2 L 24.3 24.6 L 28.8 26.4 L 33.1 28.2 L 37.2 30.3 L 41.1 32.7 L 44.8 35.2 L 48.2 37.9 L 51.4 40.7 L 54.4 43.8 L 57.1 47.0 L 59.6 50.3 L 60.2 54.9 L 57.5 58.5 L 52.9 59.1 L 49.3 56.4 L 47.7 53.3 Z " />
</g>
</svg>
