<svg xmlns="http://www.w3.org/2000/svg" xmlns:xlink="http://www.w3.org/1999/xlink" version="1.1" baseProfile="full" viewBox="0 0 200 200" width="200" height="200">
<g fill="black">
<path d="M 130.8 184.1 L 111.6 183.2 L 95.0 181.4 L 81.1 178.3 L 69.6 173.9 L 60.6 167.8 L 54.4 160.0 L 51.80271492004395 153.09864253997802 L 50.111111068725585 153.94444446563722 L 49.4 154.9 L 46.2 159.0 L 42.9 162.8 L 39.6 166.4 L 36.3 169.8 L 33.0 172.9 L 29.7 175.9 L 26.4 178.7 L 23.33198595046997 181.02425308227538 L 23.1 185.2 L 19.9 183.6 L 12.0 174.3 L 13.8 173.3 L 17.0 171.7 L 20.4 169.9 L 23.8 167.9 L 27.4 165.7 L 31.1 163.4 L 34.8 160.8 L 38.7 158.1 L 42.7 155.3 L 44.0 154.42325582504273 L 44.0 91.0 L 14.0 91.0 L 14.0 87.0 L 44.0 87.0 L 50.0 82.0 L 61.0 91.0 L 56.0 95.0 L 56.0 151.0 L 55.859574508666995 151.0702127456665 L 59.3 156.7 L 65.2 162.2 L 73.1 166.3 L 83.4 169.3 L 96.3 171.2 L 112.1 172.2 L 130.9 172.3 L 152.7 171.6 L 177.7 170.4 L 189.0 169.8 L 178.2 183.5 L 153.0 184.1 Z M 140.9 150.2 L 156.9 150.2 L 158.1 150.1 L 159.0 150.0 L 159.6 149.8 L 159.9 149.6 L 160.1 149.4 L 160.3 149.3 L 160.4 148.9 L 160.6 148.3 L 160.8 147.4 L 160.9 146.2 L 160.9 120.1 L 130.5 120.1 L 130.5 149.6 L 118.5 155.6 L 118.5 120.1 L 88.0 120.1 L 88.0 155.6 L 76.0 161.6 L 76.0 58.4 L 88.0 64.4 L 124.275 64.4 L 122.0 63.0 L 120.6 60.3 L 118.9 57.7 L 117.1 55.2 L 115.1 52.7 L 113.0 50.2 L 110.7 47.8 L 108.2 45.5 L 105.5 43.2 L 102.7 40.8 L 99.6 38.7 L 100.4 37.1 L 104.0 38.2 L 107.7 39.3 L 111.3 40.7 L 114.6 42.3 L 117.9 44.2 L 121.0 46.2 L 123.9 48.4 L 126.8 50.8 L 127.81875 51.81875 L 129.7 50.2 L 133.7 46.5 L 137.3 43.1 L 140.6 39.9 L 143.6 37.0 L 146.2 34.3 L 148.5 31.7 L 148.81304349899293 31.3 L 77.9 31.3 L 77.9 27.3 L 151.6 27.3 L 152.13207550048827 26.856603813171386 L 152.9 25.6 L 153.28052520751953 25.8995623588562 L 157.6 22.3 L 168.6 31.3 L 163.6 34.3 L 158.23999996185302 36.53333330154419 L 157.8 36.9 L 155.1 39.0 L 152.0 41.1 L 148.6 43.3 L 144.9 45.6 L 140.9 47.9 L 136.4 50.4 L 131.5 52.8 L 129.68873920440674 53.72338790893555 L 131.9 56.2 L 132.8 60.7 L 130.4631579399109 64.4 L 160.9 64.4 L 166.9 59.4 L 177.9 68.4 L 172.9 72.4 L 172.9 146.2 L 172.7 148.7 L 172.3 151.2 L 171.5 153.6 L 170.3 155.9 L 168.6 157.9 L 166.6 159.6 L 164.3 160.8 L 161.9 161.6 L 159.4 162.0 L 156.9 162.2 L 156.9 156.2 L 140.9 153.2 Z M 88.0 94.0 L 88.0 116.1 L 118.5 116.1 L 118.5 94.0 Z M 130.5 94.0 L 130.5 116.1 L 160.9 116.1 L 160.9 94.0 Z M 88.0 68.4 L 88.0 90.0 L 118.5 90.0 L 118.5 68.4 Z M 130.5 68.4 L 130.5 90.0 L 160.9 90.0 L 160.9 68.4 Z M 46.0 50.2 L 44.0 47.2 L 41.8 44.2 L 39.3 41.2 L 36.6 38.2 L 33.7 35.2 L 30.5 32.2 L 27.1 29.2 L 23.4 26.2 L 24.3 24.6 L 28.8 26.4 L 33.1 28.2 L 37.2 30.3 L 41.1 32.7 L 44.8 35.2 L 48.2 37.9 L 51.4 40.7 L 54.4 43.8 L 57.1 47.0 L 59.6 50.3 L 60.2 54.9 L 57.5 58.5 L 52.9 59.1 L 49.3 56.4 L 47.7 53.3 Z " />
</g>
</svg>
