<svg xmlns="http://www.w3.org/2000/svg" xmlns:xlink="http://www.w3.org/1999/xlink" version="1.1" baseProfile="full" viewBox="0 0 200 200" width="200" height="200">
<g fill="black">
<path d="M 129.4 184.1 L 109.6 183.2 L 92.7 181.4 L 78.5 178.4 L 66.8 173.9 L 57.7 167.8 L 51.4 160.0 L 48.80271492004395 153.09864253997802 L 47.26666669845581 153.86666669845582 L 46.6 154.8 L 43.6 158.9 L 40.5 162.7 L 37.4 166.3 L 34.3 169.7 L 28.2 175.8 L 25.1 178.5 L 22.41807336807251 180.74935779571533 L 22.3 185.0 L 19.0 183.5 L 10.9 174.4 L 12.6 173.3 L 15.7 171.7 L 18.9 170.0 L 22.1 168.0 L 25.5 165.8 L 29.0 163.5 L 32.6 160.9 L 36.3 158.2 L 40.1 155.4 L 41.0 154.76341466903688 L 41.0 91.0 L 14.0 91.0 L 14.0 87.0 L 41.0 87.0 L 47.0 82.0 L 58.0 91.0 L 53.0 95.0 L 53.0 151.0 L 52.859574508666995 151.0702127456665 L 56.3 156.7 L 62.2 162.2 L 70.2 166.3 L 80.7 169.3 L 94.0 171.2 L 110.1 172.2 L 129.4 172.3 L 151.9 171.6 L 177.7 170.4 L 189.0 169.9 L 178.2 183.5 L 152.2 184.1 Z M 142.0 155.0 L 162.0 155.0 L 163.2 154.9 L 164.1 154.7 L 165.0 154.4 L 165.4 154.0 L 165.7 153.1 L 165.9 152.2 L 166.0 151.0 L 166.0 28.0 L 84.0 28.0 L 84.0 93.0 L 83.89600000381469 93.15600004196168 L 83.3 101.5 L 82.4 109.5 L 81.3 117.1 L 79.8 124.3 L 78.1 131.1 L 76.1 137.5 L 73.8 143.5 L 71.2 149.0 L 68.1 154.0 L 64.7 158.4 L 63.2 157.5 L 64.7 152.3 L 66.2 147.0 L 67.5 141.4 L 68.8 135.5 L 69.8 129.3 L 70.6 122.7 L 71.3 115.8 L 71.7 108.5 L 71.9 100.8 L 72.0 92.8 L 72.0 18.0 L 84.0 24.0 L 166.0 24.0 L 172.0 19.0 L 183.0 28.0 L 178.0 32.0 L 178.0 151.0 L 177.8 153.5 L 177.4 156.0 L 176.6 158.4 L 175.3 160.7 L 173.7 162.7 L 171.7 164.3 L 169.4 165.6 L 167.0 166.4 L 164.5 166.8 L 162.0 167.0 L 162.0 161.0 L 142.0 158.0 Z M 109.3 101.0 L 139.6 101.0 L 145.6 96.0 L 156.6 105.0 L 151.6 109.0 L 151.6 143.9 L 139.6 149.9 L 139.6 137.9 L 109.3 137.9 L 109.3 149.9 L 97.3 155.9 L 97.3 95.0 Z M 109.3 105.0 L 109.3 133.9 L 139.6 133.9 L 139.6 105.0 Z M 88.8 81.7 L 119.0 81.7 L 119.0 58.7 L 94.3 58.7 L 94.3 54.7 L 119.0 54.7 L 119.0 32.6 L 131.0 34.6 L 134.0 36.6 L 131.0 38.4 L 131.0 54.7 L 133.6 54.7 L 143.6 44.7 L 155.6 54.7 L 155.6 58.7 L 131.0 58.7 L 131.0 81.7 L 142.9181818008423 81.7 L 151.1 72.7 L 161.1 81.7 L 161.1 85.7 L 88.8 85.7 Z M 43.4 50.0 L 41.6 47.0 L 39.5 44.0 L 37.3 41.0 L 34.8 38.1 L 32.0 35.1 L 29.1 32.2 L 25.9 29.1 L 22.4 26.2 L 23.3 24.7 L 27.6 26.5 L 31.8 28.3 L 35.7 30.4 L 39.4 32.8 L 42.9 35.3 L 46.1 38.0 L 49.1 40.9 L 52.0 43.9 L 54.5 47.1 L 56.9 50.5 L 57.2 55.1 L 54.3 58.6 L 49.8 59.0 L 46.2 56.1 L 44.9 53.0 Z " />
</g>
</svg>
