<svg xmlns="http://www.w3.org/2000/svg" xmlns:xlink="http://www.w3.org/1999/xlink" version="1.1" baseProfile="full" viewBox="0 0 200 200" width="200" height="200">
<g fill="black">
<path d="M 130.8 184.1 L 111.6 183.2 L 95.0 181.4 L 81.1 178.3 L 69.6 173.9 L 60.6 167.8 L 54.4 160.0 L 51.80271492004395 153.09864253997802 L 50.111111068725585 153.94444446563722 L 49.4 154.9 L 46.2 159.0 L 42.9 162.8 L 39.6 166.4 L 36.3 169.8 L 33.0 172.9 L 29.7 175.9 L 26.4 178.7 L 23.33198595046997 181.02425308227538 L 23.1 185.2 L 19.9 183.6 L 12.0 174.3 L 13.8 173.3 L 17.0 171.7 L 20.4 169.9 L 23.8 167.9 L 27.4 165.7 L 31.1 163.4 L 34.8 160.8 L 38.7 158.1 L 42.7 155.3 L 44.0 154.42325582504273 L 44.0 91.0 L 14.0 91.0 L 14.0 87.0 L 44.0 87.0 L 50.0 82.0 L 61.0 91.0 L 56.0 95.0 L 56.0 151.0 L 55.859574508666995 151.0702127456665 L 59.3 156.7 L 65.2 162.2 L 73.1 166.3 L 83.4 169.3 L 96.3 171.2 L 112.1 172.2 L 130.9 172.3 L 152.7 171.6 L 177.7 170.4 L 189.0 169.8 L 178.2 183.5 L 153.0 184.1 Z M 157.3 18.9 L 158.6 22.3 L 154.5266858100891 22.08931131362915 L 153.3 23.5 L 151.2 25.8 L 149.1 28.2 L 147.0 30.7 L 144.7 33.3 L 142.5 35.8 L 140.1 38.5 L 137.6 41.1 L 137.25714282989503 41.5 L 162.5 41.5 L 172.5 31.5 L 184.5 41.5 L 184.5 45.5 L 129.2925926208496 45.5 L 128.8 46.2 L 125.2 51.2 L 123.3 53.6 L 121.3 56.0 L 119.3 58.3 L 117.2 60.6 L 115.0 62.8 L 112.7 65.0 L 110.575 66.7 L 154.2 66.7 L 160.2 61.7 L 171.2 70.7 L 166.2 74.7 L 166.2 153.9 L 154.2 159.9 L 154.2 149.9 L 93.4 149.9 L 93.4 161.9 L 81.4 167.9 L 81.4 60.7 L 93.4 66.7 L 107.3777777671814 66.7 L 108.1 65.4 L 109.3 62.6 L 110.5 59.7 L 111.7 57.0 L 112.9 54.2 L 116.2 46.1 L 116.40769233703614 45.5 L 64.7 45.5 L 64.7 41.5 L 134.36176471710206 41.5 L 135.2 39.6 L 136.4 36.2 L 137.7 32.9 L 139.1 29.7 L 140.5 26.6 L 141.8 23.5 L 144.6 17.7 L 146.0 14.9 L 146.89036645889283 13.050777339935303 L 146.8 13.0 L 147.21333332061766 12.380000019073487 L 147.3 12.2 L 147.3230414390564 12.21543779373169 L 147.8 11.5 Z M 93.4 122.0 L 93.4 145.9 L 154.2 145.9 L 154.2 122.0 Z M 93.4 95.0 L 93.4 118.0 L 154.2 118.0 L 154.2 95.0 Z M 93.4 70.7 L 93.4 91.0 L 154.2 91.0 L 154.2 70.7 Z M 46.0 50.2 L 44.0 47.2 L 41.8 44.2 L 39.3 41.2 L 36.6 38.2 L 33.7 35.2 L 30.5 32.2 L 27.1 29.2 L 23.4 26.2 L 24.3 24.6 L 28.8 26.4 L 33.1 28.2 L 37.2 30.3 L 41.1 32.7 L 44.8 35.2 L 48.2 37.9 L 51.4 40.7 L 54.4 43.8 L 57.1 47.0 L 59.6 50.3 L 60.2 54.9 L 57.5 58.5 L 52.9 59.1 L 49.3 56.4 L 47.7 53.3 Z M 101.2 32.8 L 100.6 30.6 L 99.9 28.3 L 99.1 26.0 L 98.2 23.7 L 97.2 21.3 L 96.1 19.0 L 95.0 16.5 L 93.4 14.3 L 94.7 13.1 L 96.8 14.9 L 99.1 16.4 L 101.3 18.2 L 103.4 20.0 L 105.4 22.0 L 107.2 24.1 L 108.9 26.3 L 110.6 28.6 L 112.1 31.0 L 113.4 33.4 L 113.1 38.0 L 109.7 41.1 L 105.2 40.7 L 102.1 37.4 L 101.7 35.1 Z " />
</g>
</svg>
