<svg xmlns="http://www.w3.org/2000/svg" xmlns:xlink="http://www.w3.org/1999/xlink" version="1.1" baseProfile="full" viewBox="0 0 200 200" width="200" height="200">
<g fill="black">
<path d="M 13.0 172.8 L 11.2 168.6 L 12.9 164.3 L 14.3 163.2 L 15.7 161.4 L 17.1 159.0 L 18.4 155.9 L 19.6 152.2 L 20.6 147.9 L 21.4 143.0 L 22.1 137.5 L 22.8 131.5 L 23.2 124.9 L 25.0 124.8 L 26.2 131.3 L 27.1 137.5 L 27.6 143.2 L 27.8 148.5 L 27.7 153.5 L 27.2 158.0 L 26.4 162.2 L 25.3 166.0 L 23.6 169.6 L 21.5 172.7 L 17.2 174.5 Z M 36.9 165.8 L 33.0 163.4 L 31.9 158.9 L 32.6 156.6 L 33.1 154.1 L 33.5 151.4 L 33.8 148.6 L 33.9 145.6 L 33.9 142.4 L 33.8 139.1 L 33.5 135.5 L 33.2 131.8 L 32.4 128.0 L 34.1 127.4 L 35.8 131.0 L 37.6 134.4 L 39.2 137.8 L 40.5 141.1 L 41.6 144.5 L 42.4 147.8 L 43.1 151.1 L 43.5 154.4 L 43.7 157.6 L 43.7 160.8 L 41.3 164.7 Z M 46.6 146.6 L 46.5 144.1 L 46.3 141.6 L 45.9 139.0 L 45.4 136.4 L 44.8 133.6 L 44.0 130.8 L 43.1 127.9 L 41.6 125.2 L 43.1 124.1 L 45.2 126.5 L 47.5 128.8 L 49.5 131.2 L 51.3 133.7 L 53.0 136.4 L 54.4 139.1 L 55.7 141.9 L 56.7 144.8 L 57.6 147.7 L 58.3 150.8 L 56.7 155.0 L 52.6 157.1 L 48.3 155.5 L 46.3 151.4 L 46.5 149.0 Z M 58.0 135.9 L 57.6 133.8 L 57.1 131.8 L 56.3 129.7 L 55.5 127.7 L 54.4 125.5 L 53.2 123.4 L 51.9 121.2 L 50.0 119.3 L 51.1 117.9 L 53.4 119.4 L 55.9 120.6 L 58.2 122.1 L 60.4 123.8 L 62.4 125.6 L 64.3 127.6 L 66.0 129.7 L 67.5 132.0 L 68.9 134.5 L 70.0 137.1 L 69.3 141.6 L 65.6 144.3 L 61.1 143.6 L 58.4 139.9 L 58.3 137.9 Z M 140.43162393569946 123.0 L 160.7 123.0 L 160.7 96.0 L 141.4 96.0 L 141.4 110.0 L 140.5 122.6 Z M 30.9 85.9 L 30.9 108.2 L 47.4 108.2 L 47.4 85.9 Z M 30.9 59.6 L 30.9 81.9 L 47.4 81.9 L 47.4 59.6 Z M 167.6 68.2 L 162.5 64.1 L 157.7 59.6 L 153.2 54.7 L 148.8 49.3 L 144.7 43.5 L 140.8 37.3 L 137.3 30.5 L 136.5242488861084 28.638197422027588 L 133.4 33.8 L 128.6 41.1 L 123.5 48.2 L 118.0 55.0 L 112.2 61.6 L 106.88571424484253 67.0 L 142.2 67.0 L 152.2 57.0 L 164.2 67.0 L 164.2 71.0 L 141.4 71.0 L 141.4 92.0 L 160.7 92.0 L 166.7 87.0 L 177.7 96.0 L 172.7 100.0 L 172.7 133.0 L 160.7 139.0 L 160.7 127.0 L 140.5232876777649 127.0 L 143.4 133.0 L 146.9 139.8 L 150.5 146.1 L 154.4 151.9 L 158.5 157.2 L 162.9 161.9 L 167.5 166.2 L 172.5 169.9 L 177.7 173.3 L 183.3 176.1 L 188.4 178.8 L 177.1 187.8 L 170.9 183.8 L 165.2 179.2 L 159.9 174.2 L 155.2 168.7 L 150.9 162.7 L 147.2 156.3 L 144.0 149.4 L 141.4 142.1 L 139.4 134.3 L 138.98488826751708 131.46340341567992 L 138.5 134.3 L 135.3 145.0 L 130.9 154.7 L 125.4 163.4 L 118.7 170.9 L 110.9 177.2 L 102.1 182.4 L 92.3 186.2 L 81.6 188.8 L 81.1 187.1 L 90.9 182.7 L 99.5 177.7 L 106.9 172.0 L 113.2 165.7 L 118.4 158.5 L 122.6 150.6 L 125.8 141.8 L 128.0 132.2 L 128.58317756652832 127.0 L 110.2 127.0 L 110.2 139.0 L 98.2 145.0 L 98.2 86.0 L 110.2 92.0 L 129.4 92.0 L 129.4 71.0 L 106.7 71.0 L 106.7 67.18870964050294 L 106.0 67.9 L 99.5 73.8 L 92.6 79.4 L 85.3 84.6 L 84.5 83.73333330154419 L 84.5 85.9 L 59.4 85.9 L 59.4 108.2 L 72.3 108.2 L 78.3 103.2 L 89.3 112.2 L 84.4165919303894 115.13004484176636 L 84.5 118.8 L 84.5 127.1 L 84.3 135.0 L 83.8 142.3 L 83.0 149.0 L 82.0 155.3 L 80.7 161.1 L 79.2 166.5 L 77.3 171.3 L 75.1 175.7 L 73.8 177.8 L 72.3 179.7 L 70.6 181.5 L 68.7 183.1 L 66.7 184.4 L 64.5 185.5 L 62.2 186.3 L 59.9 186.9 L 57.4 187.3 L 54.9 187.4 L 54.9 181.4 L 38.9 178.4 L 38.9 175.4 L 54.9 175.4 L 56.3 175.3 L 57.6 175.1 L 58.7 174.9 L 59.7 174.5 L 60.7 174.0 L 61.5 173.4 L 62.4 172.7 L 63.2 171.9 L 63.9 170.9 L 64.7 169.7 L 66.3 166.5 L 67.8 162.6 L 69.1 158.2 L 70.2 153.1 L 71.1 147.5 L 71.8 141.2 L 72.3 134.4 L 72.5 127.0 L 72.5 120.11666669845582 L 72.3 120.2 L 72.3 112.2 L 30.9 112.2 L 18.9 118.2 L 18.9 22.3 L 30.9 28.3 L 63.4 28.3 L 73.4 18.3 L 85.4 28.3 L 85.4 32.3 L 59.4 32.3 L 59.4 55.6 L 62.5 55.6 L 72.5 45.6 L 84.5 55.6 L 84.5 59.6 L 59.4 59.6 L 59.4 81.9 L 62.5 81.9 L 72.5 71.9 L 84.5 81.9 L 84.5 82.85254240036011 L 90.0 76.7 L 95.7 70.1 L 101.2 63.4 L 106.3 56.7 L 111.2 49.9 L 115.8 42.9 L 120.1 35.7 L 124.1 28.4 L 127.8 21.0 L 130.80223121643067 14.200829315185548 L 130.8 14.2 L 130.8222222328186 14.155555534362794 L 131.2 13.3 L 131.24052047729492 13.318959140777588 L 131.8 12.2 L 142.1 18.4 L 144.0 21.5 L 140.2675549507141 21.886114978790282 L 138.42888116836548 25.38407974243164 L 140.9 28.3 L 145.7 33.9 L 150.4 39.1 L 155.1 43.8 L 159.8 48.1 L 164.5 52.0 L 169.3 55.4 L 174.1 58.3 L 178.9 60.9 L 183.8 62.9 L 189.7 65.6 L 178.3 75.0 L 172.8 71.8 Z M 30.9 32.3 L 30.9 55.6 L 47.4 55.6 L 47.4 32.3 Z M 110.2 96.0 L 110.2 123.0 L 129.0317756652832 123.0 L 129.2 121.5 L 129.4 110.0 L 129.4 96.0 Z " />
</g>
</svg>
